<svg xmlns="http://www.w3.org/2000/svg" xmlns:svg="http://www.w3.org/2000/svg" id="svg8" width="210mm" height="297mm" version="1.1" viewBox="0 0 210 297"><metadata id="metadata5"/><g id="layer1"><path id="path10" d="m 10.134339,7.4200717 a 5.7379775,5.7379775 0 0 0 -5.7379293,5.7382703 5.7379775,5.7379775 0 0 0 5.7379293,5.73793 5.7379775,5.7379775 0 0 0 5.737929,-5.73793 5.7379775,5.7379775 0 0 0 -5.737929,-5.7382703 z m -0.0058,1.7558876 a 3.9823966,3.9823966 0 0 1 0.0058,0 3.9823966,3.9823966 0 0 1 3.982383,3.9823827 3.9823966,3.9823966 0 0 1 -3.982383,3.982384 3.9823966,3.9823966 0 0 1 -3.9823836,-3.982384 3.9823966,3.9823966 0 0 1 3.9765696,-3.9823827 z" style="color:#000;overflow:visible;fill:#ececec;stroke:#000;stroke-width:.264583;stroke-miterlimit:4;stroke-dasharray:none;stop-color:#000"/><text style="color:#000;font-size:2.64583px;line-height:125%;font-family:'DIN 1451 Engschrift';-inkscape-font-specification:'DIN 1451 Engschrift';text-decoration:none;text-decoration-line:none;text-decoration-color:#000;overflow:visible;fill:#000;stroke:none;stroke-width:.264583;stroke-miterlimit:4;stroke-dasharray:none;stop-color:#000" id="text842" x="1.748" y="4.016" xml:space="preserve"><tspan id="tspan840" x="1.748" y="4.016" style="font-size:2.64583px;fill:#000;stroke:none;stroke-width:.264583">Use this as &quot;no speed limit set&quot; icon</tspan></text></g></svg>