<svg xmlns="http://www.w3.org/2000/svg" xmlns:svg="http://www.w3.org/2000/svg" id="svg8" width="210mm" height="297mm" version="1.1" viewBox="0 0 210 297"><metadata id="metadata5"/><g id="layer1" style="display:inline"><g id="g1161"><rect style="color:#000;display:inline;overflow:visible;fill:#333;stroke:#fff;stroke-width:.79375;stroke-miterlimit:4;stroke-dasharray:none;stop-color:#000" id="rect848" width="12.13" height="19.905" x="15.434" y="1.909" transform="rotate(15.535471)"/><path id="path1136" d="m 19.199229,7.4725946 -0.92346,3.3212444 1.06999,0.336313 0.92346,-3.3207274 z m -1.42931,5.1397094 -0.922947,3.321245 1.069987,0.336313 0.92294,-3.321244 z m -1.50131,5.247103 -0.923456,3.320727 1.069992,0.336826 0.923456,-3.321245 z m -1.49132,5.519713 -0.92346,3.321246 1.06999,0.336313 0.923458,-3.32073 z" style="color:#000;overflow:visible;fill:#fff;stroke:none;stroke-width:1.74168;stroke-miterlimit:4;stroke-dasharray:none;stop-color:#000"/><g id="g858" transform="translate(4.8191964,1.3229167)"><ellipse style="color:#000;overflow:visible;fill:#fff;stroke:red;stroke-width:1.39617;stroke-miterlimit:4;stroke-dasharray:none;stop-color:#000" id="path835" cx="17.573" cy="17.239" rx="6.015" ry="6.091"/><text style="color:#000;font-size:8.37257px;line-height:125%;font-family:'DIN 1451 Mittelschrift';-inkscape-font-specification:'DIN 1451 Mittelschrift';text-decoration:none;text-decoration-line:none;text-decoration-color:#000;overflow:visible;fill:#000;stroke:none;stroke-width:1.56986;stroke-miterlimit:4;stroke-dasharray:none;stop-color:#000" id="text841" x="13.655" y="20.212" xml:space="preserve"><tspan id="tspan839" x="13.655" y="20.212" style="fill:#000;stroke:none;stroke-width:1.56986">50</tspan></text></g></g><g id="g1153"><rect style="color:#000;display:inline;overflow:visible;fill:#333;stroke:#fff;stroke-width:.79375;stroke-miterlimit:4;stroke-dasharray:none;stop-color:#000" id="rect974" width="12.13" height="19.905" x="22.202" y="28.372" transform="rotate(15.535471)"/><path id="path1100" d="m 19.104736,34.403398 -0.92346,3.321244 1.06999,0.336313 0.92346,-3.320727 z m -1.42931,5.139709 -0.922947,3.321245 1.069987,0.336313 0.92294,-3.321244 z m -1.50131,5.247103 -0.923456,3.320727 1.069992,0.336826 0.923456,-3.321245 z m -1.49132,5.519713 -0.92346,3.321246 1.06999,0.336313 0.923458,-3.32073 z" style="color:#000;overflow:visible;fill:#fff;stroke:none;stroke-width:1.74168;stroke-miterlimit:4;stroke-dasharray:none;stop-color:#000"/><g id="g1144" transform="translate(0.18898809,-0.47247024)"><ellipse style="color:#000;overflow:visible;fill:#0d468a;stroke:#fff;stroke-width:1.39617;stroke-miterlimit:4;stroke-dasharray:none;stop-color:#000" id="ellipse986" cx="22.203" cy="46.06" rx="6.015" ry="6.091"/><text style="color:#000;font-size:8.37257px;line-height:125%;font-family:'DIN 1451 Mittelschrift';-inkscape-font-specification:'DIN 1451 Mittelschrift';text-decoration:none;text-decoration-line:none;text-decoration-color:#000;overflow:visible;fill:#fff;stroke:none;stroke-width:1.56986;stroke-miterlimit:4;stroke-dasharray:none;stop-color:#000" id="text990" x="18.286" y="49.032" xml:space="preserve"><tspan id="tspan988" x="18.286" y="49.032" style="fill:#fff;stroke:none;stroke-width:1.56986">50</tspan></text><ellipse style="color:#000;overflow:visible;fill:none;stroke:#0d468a;stroke-width:.502572;stroke-miterlimit:4;stroke-dasharray:none;stop-color:#000" id="ellipse996" cx="22.203" cy="46.06" rx="6.537" ry="6.62"/></g></g><text style="color:#000;font-size:13.5655px;line-height:125%;font-family:'DIN 1451 Mittelschrift';-inkscape-font-specification:'DIN 1451 Mittelschrift';text-decoration:none;text-decoration-line:none;text-decoration-color:#000;overflow:visible;fill:#fff;stroke:#0d468a;stroke-width:.529167;stroke-miterlimit:4;stroke-dasharray:none;stop-color:#000" id="text1018" x="40.403" y="47.231" xml:space="preserve"><tspan id="tspan1016" x="40.403" y="47.231" style="font-style:normal;font-variant:normal;font-weight:400;font-stretch:normal;font-family:'DIN 1451 Engschrift';-inkscape-font-specification:'DIN 1451 Engschrift';fill:#fff;stroke:#0d468a;stroke-width:.529167;stroke-miterlimit:4;stroke-dasharray:none">km/h</tspan></text><text style="color:#000;font-size:13.5655px;line-height:125%;font-family:'DIN 1451 Mittelschrift';-inkscape-font-specification:'DIN 1451 Mittelschrift';text-decoration:none;text-decoration-line:none;text-decoration-color:#000;overflow:visible;fill:#fff;stroke:#000;stroke-width:.529167;stroke-miterlimit:4;stroke-dasharray:none;stop-color:#000" id="text1022" x="41.774" y="69.485" xml:space="preserve"><tspan id="tspan1020" x="41.774" y="69.485" style="font-style:normal;font-variant:normal;font-weight:400;font-stretch:normal;font-family:'DIN 1451 Engschrift';-inkscape-font-specification:'DIN 1451 Engschrift';fill:#fff;stroke:#000;stroke-width:.529167;stroke-miterlimit:4;stroke-dasharray:none">MPH</tspan></text><text style="color:#000;font-size:2.64583px;line-height:125%;font-family:'DIN 1451 Engschrift';-inkscape-font-specification:'DIN 1451 Engschrift';text-decoration:none;text-decoration-line:none;text-decoration-color:#000;overflow:visible;fill:#000;stroke-width:.264583;stop-color:#000" id="text898" x="1.537" y="3.207" xml:space="preserve"><tspan style="font-style:normal;font-variant:normal;font-weight:400;font-stretch:normal;font-family:Cambria;-inkscape-font-specification:Cambria;stroke-width:.264583" id="tspan904" x="1.537" y="3.207">Original design: Speed icons were shown over road piece</tspan></text><text style="color:#000;font-style:normal;font-variant:normal;font-weight:400;font-stretch:normal;font-size:2.64583px;line-height:125%;font-family:Cambria;-inkscape-font-specification:Cambria;text-decoration:none;text-decoration-line:none;text-decoration-color:#000;overflow:visible;fill:#000;stroke-width:.264583;stop-color:#000" id="text914" x="91.206" y="3.074" xml:space="preserve"><tspan id="tspan912" x="91.206" y="3.074" style="stroke-width:.264583">New idea by Aubergine10: Show blue sausages because this will be sign-theme independent</tspan></text><rect style="color:#000;display:inline;overflow:visible;fill:#333;stroke:#fff;stroke-width:.79375;stroke-miterlimit:4;stroke-dasharray:none;stop-color:#000" id="rect959" width="12.13" height="19.905" x="94.488" y="-20.067" transform="rotate(15.535471)"/><path id="rect938" d="m 93.928054,20.228359 2.357786,-8.441065 c 1.489702,-5.511793 10.25708,-2.8926714 8.92317,2.326548 l -2.35779,8.441066 c -1.35606,5.305173 -10.43608,2.913885 -8.923166,-2.326549 z" style="color:#000;overflow:visible;fill:#80b3ff;fill-opacity:1;stroke:#06f;stroke-width:.740246;stroke-miterlimit:4;stroke-dasharray:none;stroke-opacity:1;stop-color:#000"/><path id="path961" d="m 101.74923,7.4725949 -0.92346,3.3212441 1.06999,0.336313 0.92346,-3.3207279 z m -1.42931,5.1397091 -0.922947,3.321245 1.069987,0.336313 0.92294,-3.321244 z m -1.50131,5.247103 -0.923456,3.320727 1.069992,0.336826 0.923456,-3.321245 z m -1.49132,5.519713 -0.92346,3.321246 1.06999,0.336313 0.923458,-3.32073 z" style="color:#000;overflow:visible;fill:#fff;stroke:none;stroke-width:1.74168;stroke-miterlimit:4;stroke-dasharray:none;stop-color:#000"/><g id="g976"><g id="g936" transform="matrix(1.0570404,0.2938481,-0.2938481,1.0570404,92.205245,-11.879487)"><rect style="color:#000;display:inline;overflow:visible;fill:#333;stroke:#fff;stroke-width:.723482;stroke-miterlimit:4;stroke-dasharray:none;stop-color:#000" id="rect926" width="11.056" height="18.143" x="30.616" y="8.504"/><path id="rect928" d="m 35.670269,8.5181949 -1.6e-4,3.1420661 1.021739,0.03413 2.86e-4,-3.1416127 z m -4.56e-4,4.8624851 2.94e-4,3.141941 1.021739,0.03413 -2.96e-4,-3.141939 z m -0.03746,4.97437 -2.83e-4,3.141612 1.021865,0.03458 1.57e-4,-3.142066 z m 0.03786,5.211332 -1.6e-4,3.142068 1.021739,0.03413 2.84e-4,-3.141614 z" style="color:#000;overflow:visible;fill:#fff;stroke:none;stroke-width:1.5875;stroke-miterlimit:4;stroke-dasharray:none;stop-color:#000"/></g><path id="path941" d="m 125.22756,24.917442 3.91867,-13.919811 c 0.67718,-2.7269637 3.03146,-1.9019318 2.25035,0.523797 l -3.91868,13.919809 c -0.60723,2.45244 -2.91947,1.5693 -2.25034,-0.523795 z" style="color:#000;overflow:visible;fill:#80b3ff;fill-opacity:1;stroke:#06f;stroke-width:.4;stroke-miterlimit:4;stroke-dasharray:none;stroke-opacity:1;stop-color:#000"/></g><g id="g1173"><rect style="color:#000;display:inline;overflow:visible;fill:#333;stroke:#fff;stroke-width:.79375;stroke-miterlimit:4;stroke-dasharray:none;stop-color:#000" id="rect904" width="12.13" height="19.905" x="42.337" y="-5.57" transform="rotate(15.535471)"/><g id="g924" transform="matrix(0.74368954,0,0,0.74368954,27.115469,1.3758487)"><ellipse style="color:#000;overflow:visible;fill:#fff;stroke:red;stroke-width:1.39617;stroke-miterlimit:4;stroke-dasharray:none;stop-color:#000" id="ellipse918" cx="17.573" cy="17.239" rx="6.015" ry="6.091"/><text style="color:#000;font-size:8.37257px;line-height:125%;font-family:'DIN 1451 Mittelschrift';-inkscape-font-specification:'DIN 1451 Mittelschrift';text-decoration:none;text-decoration-line:none;text-decoration-color:#000;overflow:visible;fill:#000;stroke:none;stroke-width:1.56986;stroke-miterlimit:4;stroke-dasharray:none;stop-color:#000" id="text922" x="13.655" y="20.212" xml:space="preserve"><tspan id="tspan920" x="13.655" y="20.212" style="fill:#000;stroke:none;stroke-width:1.56986">70</tspan></text></g><g id="g932" transform="matrix(0.74368954,0,0,0.74368954,37.472163,6.9551001)"><ellipse style="color:#000;overflow:visible;fill:#fff;stroke:red;stroke-width:1.39617;stroke-miterlimit:4;stroke-dasharray:none;stop-color:#000" id="ellipse926" cx="17.573" cy="17.239" rx="6.015" ry="6.091"/><text style="color:#000;font-size:8.37257px;line-height:125%;font-family:'DIN 1451 Mittelschrift';-inkscape-font-specification:'DIN 1451 Mittelschrift';text-decoration:none;text-decoration-line:none;text-decoration-color:#000;overflow:visible;fill:#000;stroke:none;stroke-width:1.56986;stroke-miterlimit:4;stroke-dasharray:none;stop-color:#000" id="text930" x="14.15" y="20.257" xml:space="preserve"><tspan id="tspan928" x="14.15" y="20.257" style="fill:#000;stroke:none;stroke-width:1.56986">10</tspan></text></g><path id="path1138" d="m 47.547444,7.4725946 -0.92346,3.3212444 1.06999,0.336313 0.92346,-3.3207274 z m -1.42931,5.1397094 -0.922947,3.321245 1.069987,0.336313 0.92294,-3.321244 z m -1.50131,5.247103 -0.923456,3.320727 1.069992,0.336826 0.923456,-3.321245 z m -1.49132,5.519713 -0.92346,3.321246 1.06999,0.336313 0.923458,-3.32073 z" style="color:#000;overflow:visible;fill:#fff;stroke:none;stroke-width:1.74168;stroke-miterlimit:4;stroke-dasharray:none;stop-color:#000"/></g></g></svg>